<svg width="38" height="38" viewBox="0 0 38 38" fill="none" xmlns="http://www.w3.org/2000/svg">
<rect y="0.0563965" width="37.8786" height="37.8786" rx="8.23448" fill="white" fill-opacity="0.5"/>
<rect x="1.23517" y="1.29157" width="35.4083" height="35.4083" rx="6.99931" stroke="white" stroke-opacity="0.12" stroke-width="2.47034"/>
<g opacity="0.8" clip-path="url(#clip0_1939_94)">
<path d="M26.3907 23.4263C26.9739 23.7071 27.4275 24.0743 27.7515 24.5278C28.0754 24.9814 28.3022 25.4566 28.4318 25.9533C28.5614 26.4501 28.6478 26.9145 28.691 27.3464C28.7342 27.7784 28.7342 28.1132 28.691 28.3508C28.6478 28.5884 28.5614 28.7612 28.4318 28.8692C28.1294 29.1283 27.7623 29.3551 27.3303 29.5495C26.8983 29.7439 26.4231 29.9167 25.9048 30.0679C25.3864 30.2191 24.8572 30.3379 24.3173 30.4243L22.7298 30.6834C21.5202 30.8346 20.2459 30.921 18.9068 30.9426C17.5461 30.921 16.261 30.8346 15.0515 30.6834C14.5331 30.6186 14.0039 30.5322 13.464 30.4243C12.924 30.3163 12.4056 30.1975 11.9089 30.0679C11.4121 29.9383 10.9369 29.7655 10.4833 29.5495C10.0298 29.3335 9.65179 29.1067 9.34941 28.8692C9.21982 28.7612 9.13883 28.5938 9.10643 28.367C9.07403 28.1402 9.06863 27.8 9.09023 27.3464C9.11183 26.8929 9.19822 26.4285 9.34941 25.9533C9.5006 25.4782 9.72739 25.003 10.0298 24.5278C10.3322 24.0527 10.7857 23.6855 11.3905 23.4263L13.3992 22.5192C14.0255 22.2384 14.5871 21.936 15.0839 21.612C15.5806 21.288 15.9586 20.9101 16.2178 20.4781C16.477 20.0461 16.6174 19.5277 16.639 18.923V18.7286C16.2718 18.4262 16.0018 18.0698 15.829 17.6595L15.0839 15.91C14.6951 15.478 14.4035 15.0784 14.2091 14.7112C14.0363 14.4089 13.9499 14.1281 13.9499 13.8689C13.9499 13.6097 14.1335 13.4801 14.5007 13.4801C14.3711 12.6594 14.3387 11.925 14.4035 11.2771C14.4467 10.7371 14.5763 10.2403 14.7923 9.78675C15.0083 9.33318 15.397 9.1064 15.9586 9.1064C16.0666 8.69602 16.2502 8.32884 16.5094 8.00487C16.7469 7.72408 17.0817 7.4649 17.5137 7.22731C17.9457 6.98973 18.518 6.88174 19.2308 6.90333C19.8788 6.90333 20.4079 7.04373 20.8183 7.32451C21.2287 7.60529 21.585 7.92927 21.8874 8.29645C22.1898 8.66362 22.4382 9.02 22.6326 9.36558C22.827 9.71116 23.043 9.95954 23.2805 10.1107C23.3669 10.1539 23.4425 10.2079 23.5073 10.2727C23.5721 10.3375 23.5721 10.4239 23.5073 10.5319C23.4209 10.8343 23.3345 11.2771 23.2481 11.8602C23.1617 12.4434 23.1725 12.9834 23.2805 13.4801C23.6693 13.5017 23.8529 13.6313 23.8313 13.8689C23.8097 14.1065 23.7017 14.3873 23.5073 14.7112C23.2913 15.0784 22.989 15.478 22.6002 15.91C22.449 16.2987 22.3302 16.6335 22.2438 16.9143C22.1574 17.1951 22.0602 17.4543 21.9522 17.6919C21.8442 17.9294 21.7362 18.113 21.6282 18.2426C21.5202 18.3722 21.3583 18.5342 21.1423 18.7286V18.923C21.1423 19.5493 21.2827 20.0677 21.5634 20.4781C21.8442 20.8885 22.233 21.2664 22.7298 21.612C23.2265 21.9576 23.7773 22.26 24.3821 22.5192C24.9868 22.7783 25.6564 23.0807 26.3907 23.4263Z" fill="#1D1E43"/>
</g>
<defs>
<clipPath id="clip0_1939_94">
<rect width="19.7628" height="27.5383" fill="white" transform="translate(9.05786 6.64429)"/>
</clipPath>
</defs>
</svg>
