<svg width="23" height="16" viewBox="0 0 23 16" fill="none" xmlns="http://www.w3.org/2000/svg">
<path d="M20.695 1.75146C19.5031 1.75146 18.5336 2.82893 18.5336 4.15329C18.5336 5.47745 19.5031 6.55491 20.695 6.55491C21.887 6.55491 22.8567 5.47745 22.8567 4.15329C22.8567 2.82893 21.887 1.75146 20.695 1.75146Z" fill="#F47434"/>
<path d="M18.9713 13.2795H4.1599C3.93361 13.2795 3.7222 13.1645 3.59479 12.9723C1.64059 10.0253 1.49068 4.35634 1.47933 3.51481C1.47863 3.48183 1.47827 3.44848 1.47827 3.41531C1.47827 3.02735 1.78377 2.71264 2.16104 2.71191H2.16246C2.53901 2.71191 2.84504 3.02516 2.84646 3.41258C2.84646 3.41732 2.84664 3.45887 2.84823 3.53249C2.90848 5.5339 4.51058 7.14279 6.47117 7.14279C8.46985 7.14279 10.0959 5.47066 10.0959 3.41531C10.0959 3.0268 10.4023 2.71191 10.7799 2.71191H12.3511C12.7289 2.71191 13.0352 3.0268 13.0352 3.41531C13.0352 5.47066 14.6614 7.14279 16.66 7.14279C18.6224 7.14279 20.2256 5.53098 20.2831 3.52702C20.2844 3.45668 20.2847 3.41732 20.2847 3.41276C20.2862 3.02516 20.592 2.71191 20.9687 2.71191H20.97C21.3473 2.71264 21.6528 3.02735 21.6528 3.41531C21.6528 3.44866 21.6524 3.48183 21.6519 3.51499C21.6403 4.35634 21.4904 10.0255 19.5364 12.9724C19.409 13.1645 19.1974 13.2795 18.9713 13.2795Z" fill="#F79C6E"/>
<path d="M20.9698 2.71191C20.9695 2.71191 20.9691 2.71191 20.9686 2.71191C20.592 2.71191 20.286 3.02517 20.2846 3.41259C20.2846 3.41733 20.2844 3.45669 20.283 3.52703C20.2254 5.53085 18.6222 7.14286 16.6599 7.14286C14.6612 7.14286 13.0351 5.47071 13.0351 3.41533C13.0351 3.02681 12.7287 2.71191 12.3511 2.71191H11.5656V13.2795H18.9711C19.1974 13.2795 19.4088 13.1645 19.5363 12.9724C21.4905 10.0254 21.6404 4.35619 21.6517 3.51482C21.6524 3.48184 21.6528 3.44849 21.6528 3.41533C21.6526 3.02736 21.3471 2.71264 20.9698 2.71191Z" fill="#F6844B"/>
<path d="M11.5654 0.310303C10.2411 0.310303 9.1637 1.38777 9.1637 2.71212C9.1637 4.03648 10.2411 5.11375 11.5654 5.11375C12.8897 5.11375 13.9671 4.03648 13.9671 2.71212C13.9671 1.38777 12.8897 0.310303 11.5654 0.310303Z" fill="#F6844B"/>
<path d="M11.5656 0.310303V5.11375C12.89 5.11356 13.9673 4.03633 13.9673 2.71203C13.9673 1.38773 12.8898 0.310495 11.5656 0.310303Z" fill="#F47434"/>
<path d="M2.19887 1.75146C1.00695 1.75146 0.0372314 2.82889 0.0372314 4.15319C0.0372314 5.47749 1.00695 6.55491 2.19887 6.55491C3.39079 6.55491 4.36033 5.47749 4.36033 4.15319C4.36033 2.82889 3.39079 1.75146 2.19887 1.75146Z" fill="#F6844B"/>
<path d="M19.0409 15.6814H4.0901C3.70875 15.6814 3.39966 15.3574 3.39966 14.9576V12.7993H19.7314V14.9576C19.7314 15.3574 19.4223 15.6814 19.0409 15.6814Z" fill="#F6844B"/>
<path d="M11.5656 15.6814H19.041C19.4223 15.6814 19.7314 15.3574 19.7314 14.9576V12.7993H11.5656V15.6814Z" fill="#F47434"/>
</svg>
