<svg width="101" height="103" viewBox="0 0 101 103" fill="none" xmlns="http://www.w3.org/2000/svg">
<g clip-path="url(#clip0_1026_602)" filter="url(#filter0_d_1026_602)">
<path d="M56.3146 54.9188L65.5715 20.3717C65.944 18.9813 67.4718 18.1657 68.7953 18.7295C85.4884 25.8301 94.6888 44.541 89.2041 62.541C83.5705 81.0268 63.4082 92.0214 44.8063 86.7858C37.4932 84.7279 31.3466 80.5468 26.8314 75.0989C25.8997 73.9754 26.2777 72.2619 27.5422 71.5318L56.3146 54.9188Z" fill="url(#paint0_linear_1026_602)" fill-opacity="0.9"/>
<path d="M57.11 55.132L57.0217 55.4614L56.7263 55.632L27.954 72.2449L27.5422 71.5318L27.954 72.2449C27.0925 72.7423 26.887 73.8759 27.4653 74.5732L27.4654 74.5734C31.8778 79.8974 37.883 83.9822 45.0294 85.9931L44.8063 86.7858L45.0294 85.9932C63.2012 91.1077 82.9137 80.3574 88.4164 62.3009C93.7759 44.7119 84.7867 26.4265 68.473 19.4872L68.4726 19.487C67.6467 19.1352 66.6204 19.6386 66.3669 20.5848L57.11 55.132Z" stroke="url(#paint1_linear_1026_602)" stroke-opacity="0.4" stroke-width="1.6469"/>
<path d="M11.7425 43.3027L46.2897 52.5596L17.1171 69.4023C16.0021 70.0461 14.5358 69.7297 13.8599 68.6357C9.64792 61.8177 7.6897 53.6235 8.70798 45.275C8.88194 43.8454 10.3521 42.9301 11.7425 43.3027Z" fill="url(#paint2_linear_1026_602)" fill-opacity="0.9"/>
<path d="M14.5605 68.2029C14.9853 68.8904 15.9472 69.127 16.7054 68.6892L44.1563 52.8404L11.5294 44.0981C10.5836 43.8446 9.63408 44.4813 9.5254 45.3744L9.52537 45.3747C8.53051 53.5312 10.4433 61.5384 14.5605 68.2029ZM14.5605 68.2029L13.8599 68.6357L14.5605 68.2029Z" stroke="url(#paint3_linear_1026_602)" stroke-opacity="0.4" stroke-width="1.6469"/>
<path d="M16.9183 34.2511C22.7782 17.1803 40.4003 7.00625 58.114 10.4668C59.4663 10.7309 60.2845 12.1501 59.9279 13.4808L51.1988 46.0581L18.62 37.3286C17.2893 36.9721 16.4708 35.5543 16.9183 34.2511Z" fill="url(#paint4_linear_1026_602)" fill-opacity="0.9"/>
<path d="M17.6972 34.5185L17.6971 34.5186C17.4159 35.3376 17.929 36.291 18.8332 36.5332L50.6166 45.0496L59.1325 13.2676C59.375 12.3628 58.8054 11.4408 57.9561 11.275L57.9561 11.275C40.6458 7.89325 23.4236 17.8365 17.6972 34.5185ZM16.9183 34.2511C22.7782 17.1803 40.4003 7.00625 58.114 10.4668L16.9183 34.2511Z" stroke="url(#paint5_linear_1026_602)" stroke-opacity="0.4" stroke-width="1.6469"/>
<path d="M34.3215 35.0739L38.6236 32.6732L38.0935 31.7233L35.3603 33.2485L35.3363 33.2056L35.8041 31.502C36.3705 29.6509 36.3895 28.8929 35.9945 28.185C35.408 27.134 34.1239 26.842 32.8615 27.5465C31.6174 28.2407 31.1658 29.5053 31.831 30.6973L32.9126 30.0937C32.5553 29.4533 32.7357 28.8262 33.3608 28.4773C33.9583 28.1439 34.6061 28.2606 34.9362 28.852C35.2285 29.376 35.1185 29.9276 34.85 30.9012L33.8632 34.2527L34.3215 35.0739ZM41.9103 30.9516C43.2371 30.2112 43.6598 28.7939 42.9639 27.5468C42.2902 26.3395 40.965 25.9378 39.8251 26.5739C39.3164 26.8577 38.9788 27.3113 38.8999 27.717L38.8631 27.7376L38.1154 25.9728L40.815 24.4664L40.2849 23.5165L36.6446 25.5479L38.1224 28.9666L39.243 28.5623C39.3244 28.2115 39.6356 27.8329 40.0142 27.6256C40.7053 27.244 41.4856 27.4756 41.8792 28.1882C42.2739 28.8882 42.0684 29.6579 41.3974 30.0323C40.8305 30.3487 40.1739 30.2449 39.8468 29.7524L38.7437 30.3679C39.3557 31.3927 40.6847 31.6356 41.9103 30.9516ZM47.8399 25.9872C48.2499 26.7147 49.0597 27.0786 49.9207 26.5981C50.7787 26.1193 50.9035 25.2339 50.4935 24.5064L50.3088 24.1754C49.9015 23.4383 49.0982 23.0789 48.2279 23.5645C47.3791 24.0382 47.2513 24.9252 47.6552 25.6562L47.8399 25.9872ZM42.646 24.1759C43.056 24.9035 43.8624 25.2612 44.7265 24.779C45.5814 24.302 45.713 23.4289 45.2996 22.6952L45.1149 22.3642C44.7076 21.6271 43.9043 21.2677 43.0371 21.7516C42.1914 22.2235 42.054 23.1079 42.4613 23.845L42.646 24.1759ZM45.5824 28.79L46.3515 28.3608L47.164 19.6777L46.3949 20.1069L45.5824 28.79ZM48.4549 25.2099C48.2768 24.8834 48.2317 24.4786 48.6178 24.2632C49.0223 24.0375 49.3247 24.2986 49.5029 24.6252L49.6876 24.9561C49.8719 25.2792 49.9197 25.6744 49.5275 25.8933C49.1352 26.1122 48.8222 25.8609 48.6396 25.5409L48.4549 25.2099ZM43.2672 23.3953C43.0907 23.0719 43.0378 22.6674 43.427 22.4502C43.8315 22.2245 44.1309 22.4874 44.309 22.8139L44.4937 23.1449C44.678 23.468 44.7289 23.8615 44.3367 24.0804C43.9444 24.2993 43.6362 24.0493 43.4519 23.7262L43.2672 23.3953Z" fill="white" fill-opacity="0.8"/>
</g>
<defs>
<filter id="filter0_d_1026_602" x="-7.24718" y="-1.14128" width="115.644" height="112.233" filterUnits="userSpaceOnUse" color-interpolation-filters="sRGB">
<feFlood flood-opacity="0" result="BackgroundImageFix"/>
<feColorMatrix in="SourceAlpha" type="matrix" values="0 0 0 0 0 0 0 0 0 0 0 0 0 0 0 0 0 0 127 0" result="hardAlpha"/>
<feOffset dy="6.58759"/>
<feGaussianBlur stdDeviation="4.11724"/>
<feColorMatrix type="matrix" values="0 0 0 0 0.334444 0 0 0 0 0.0410466 0 0 0 0 0.0238889 0 0 0 0.25 0"/>
<feBlend mode="normal" in2="BackgroundImageFix" result="effect1_dropShadow_1026_602"/>
<feBlend mode="normal" in="SourceGraphic" in2="effect1_dropShadow_1026_602" result="shape"/>
</filter>
<linearGradient id="paint0_linear_1026_602" x1="67.0848" y1="-12.7613" x2="35.2405" y2="106.083" gradientUnits="userSpaceOnUse">
<stop stop-color="#F53B3B"/>
<stop offset="1" stop-color="#FB6544"/>
</linearGradient>
<linearGradient id="paint1_linear_1026_602" x1="60.5614" y1="11.1169" x2="40.5881" y2="85.6585" gradientUnits="userSpaceOnUse">
<stop stop-color="#E74544"/>
<stop offset="1" stop-color="white" stop-opacity="0.14"/>
</linearGradient>
<linearGradient id="paint2_linear_1026_602" x1="45.9338" y1="29.5615" x2="34.8974" y2="106.318" gradientUnits="userSpaceOnUse">
<stop stop-color="#1256BC"/>
<stop offset="1" stop-color="#44F0FB"/>
</linearGradient>
<linearGradient id="paint3_linear_1026_602" x1="60.2183" y1="11.3517" x2="40.245" y2="85.8932" gradientUnits="userSpaceOnUse">
<stop stop-color="#E74544"/>
<stop offset="1" stop-color="white" stop-opacity="0.14"/>
</linearGradient>
<linearGradient id="paint4_linear_1026_602" x1="67.0848" y1="-12.7613" x2="35.2405" y2="106.083" gradientUnits="userSpaceOnUse">
<stop stop-color="#F5AB3B"/>
<stop offset="1" stop-color="#FB6544"/>
</linearGradient>
<linearGradient id="paint5_linear_1026_602" x1="60.5614" y1="11.1169" x2="40.5881" y2="85.6584" gradientUnits="userSpaceOnUse">
<stop stop-color="#E74544"/>
<stop offset="1" stop-color="white" stop-opacity="0.14"/>
</linearGradient>
<clipPath id="clip0_1026_602">
<rect width="81.9951" height="77.1719" fill="white" transform="matrix(-0.965926 -0.258819 -0.258819 0.965926 100.162 21.7275)"/>
</clipPath>
</defs>
</svg>
