<svg width="68" height="68" viewBox="0 0 68 68" fill="none" xmlns="http://www.w3.org/2000/svg">
<g opacity="0.8">
<path d="M53.8334 34.0001C53.8334 40.1201 51.0567 45.7868 46.2684 49.5834C44.3134 51.1134 43.0384 53.1251 42.6417 55.2784L42.5001 55.2501H25.5001L25.3017 55.2784C24.9051 53.0401 23.7434 51.0851 22.0717 49.8384C15.8951 45.1634 13.0051 37.5134 14.5917 29.8068C16.1501 22.2984 22.2417 16.1784 29.7501 14.6201C35.7284 13.3451 41.8484 14.8184 46.4951 18.5868C51.1701 22.3834 53.8334 27.9934 53.8334 34.0001Z" fill="#E38E3F"/>
<path d="M33.9972 14.1694C32.5891 14.1694 31.1667 14.3168 29.7501 14.6199C22.2417 16.1783 16.1501 22.2983 14.5917 29.8066C13.0051 37.5133 15.8951 45.1633 22.0717 49.8383C23.7434 51.0849 24.9051 53.0399 25.3017 55.2783L25.5001 55.2499H34.0001V14.1694C33.9972 14.1694 33.9972 14.1694 33.9972 14.1694Z" fill="#E0842E"/>
<path d="M42.6416 55.2783C42.5566 55.76 42.5 56.2417 42.5 56.7517V63.0417C42.5 65.7617 40.2616 68 37.5416 68H30.4583C28.0783 68 25.5 66.1867 25.5 62.22V57.205C25.5 56.5533 25.4433 55.9017 25.3016 55.2783L25.5 55.25H42.5L42.6416 55.2783Z" fill="#4F4F7D"/>
<path d="M34 55.25H25.5L25.3016 55.2783C25.4433 55.9017 25.5 56.5533 25.5 57.205V62.22C25.5 66.1867 28.0783 68 30.4583 68H34V55.25Z" fill="#39395B"/>
<path d="M44.625 35.4167C43.452 35.4167 42.5 34.4647 42.5 33.2917C42.5 28.9935 39.0065 25.5 34.7084 25.5C33.5354 25.5 32.5834 24.548 32.5834 23.375C32.5834 22.202 33.5354 21.25 34.7084 21.25C41.3469 21.25 46.75 26.6532 46.75 33.2917C46.75 34.4647 45.798 35.4167 44.625 35.4167Z" fill="#FFD54F"/>
<path d="M33.252 23.3638C33.0339 23.3638 32.81 23.3666 32.5834 23.3751C32.5834 24.5481 33.5354 25.5001 34.7084 25.5001C39.0065 25.5001 42.5 28.9936 42.5 33.2918C42.5 34.4648 43.452 35.4168 44.625 35.4168C45.798 35.4168 46.1975 23.3638 33.252 23.3638Z" fill="#DEB945"/>
<path opacity="0.7" d="M57.3944 17.3617C56.961 17.3617 56.5277 17.197 56.1981 16.8652C55.5368 16.2039 55.5368 15.1319 56.1981 14.4706L59.322 11.347C59.9833 10.6858 61.0555 10.6858 61.7168 11.347C62.3781 12.0083 62.3781 13.0803 61.7168 13.7416L58.5929 16.8652C58.2611 17.1947 57.8278 17.3617 57.3944 17.3617Z" fill="#E38E3F"/>
<path opacity="0.7" d="M9.8822 17.3617C10.3156 17.3617 10.7489 17.197 11.0785 16.8652C11.7398 16.2039 11.7398 15.1319 11.0785 14.4706L7.95462 11.347C7.29329 10.6858 6.22116 10.6858 5.55982 11.347C4.89849 12.0083 4.89849 13.0803 5.55982 13.7416L8.68367 16.8652C9.01546 17.1947 9.44883 17.3617 9.8822 17.3617Z" fill="#E38E3F"/>
<path opacity="0.7" d="M66.2737 36.1702H61.769C60.816 36.1702 60.0426 35.5221 60.0426 34.7234C60.0426 33.9248 60.816 33.2766 61.769 33.2766H66.2737C67.2266 33.2766 68 33.9248 68 34.7234C68 35.5221 67.2266 36.1702 66.2737 36.1702Z" fill="#E38E3F"/>
<path opacity="0.7" d="M35.0851 2.81141V7.3161C35.0851 8.26906 34.437 9.04248 33.6383 9.04248C32.8397 9.04248 32.1915 8.26906 32.1915 7.3161V2.81141C32.1915 1.85845 32.8397 1.08503 33.6383 1.08503C34.437 1.08503 35.0851 1.85845 35.0851 2.81141Z" fill="#E38E3F"/>
<path opacity="0.7" d="M1.72633 36.1702H6.23102C7.18398 36.1702 7.9574 35.5221 7.9574 34.7234C7.9574 33.9248 7.18398 33.2766 6.23102 33.2766H1.72633C0.773367 33.2766 -4.95911e-05 33.9248 -4.95911e-05 34.7234C-4.95911e-05 35.5221 0.773367 36.1702 1.72633 36.1702Z" fill="#E38E3F"/>
<path opacity="0.7" d="M60.5183 55.702C60.0849 55.702 59.6515 55.5373 59.322 55.2055L56.1981 52.082C55.5368 51.4207 55.5368 50.3486 56.1981 49.6874C56.8595 49.0261 57.9316 49.0261 58.5929 49.6874L61.7168 52.8109C62.3781 53.4722 62.3781 54.5443 61.7168 55.2055C61.385 55.5373 60.9516 55.702 60.5183 55.702Z" fill="#E38E3F"/>
<path opacity="0.7" d="M6.75835 55.702C7.19172 55.702 7.62508 55.5373 7.95462 55.2055L11.0785 52.082C11.7398 51.4207 11.7398 50.3486 11.0785 49.6874C10.4171 49.0261 9.345 49.0261 8.68367 49.6874L5.55982 52.8109C4.89849 53.4722 4.89849 54.5443 5.55982 55.2055C5.89162 55.5373 6.32499 55.702 6.75835 55.702Z" fill="#E38E3F"/>
</g>
</svg>
